<svg xmlns="http://www.w3.org/2000/svg" width="256" height="256" viewBox="0 0 256 256" role="img" aria-label="givetray icon">
  <defs>
    <linearGradient id="bg" x1="0" y1="0" x2="0" y2="1">
      <stop offset="0%" stop-color="#1292b5"/>
      <stop offset="100%" stop-color="#2460aa"/>
    </linearGradient>
    <radialGradient id="hl" cx="50%" cy="16%" r="54%">
      <stop offset="0%" stop-color="#ffffff" stop-opacity="0.20"/>
      <stop offset="100%" stop-color="#ffffff" stop-opacity="0"/>
    </radialGradient>
    <path id="squircle" d="M 241.00 127.50 L 240.94 160.70 L 240.74 171.79 L 240.42 179.90 L 239.96 186.49 L 239.37 192.13 L 238.65 197.08 L 237.80 201.51 L 236.80 205.52 L 235.67 209.18 L 234.40 212.53 L 232.98 215.61 L 231.41 218.46 L 229.68 221.08 L 227.79 223.50 L 225.74 225.74 L 223.50 227.79 L 221.08 229.68 L 218.46 231.41 L 215.61 232.98 L 212.53 234.40 L 209.18 235.67 L 205.52 236.80 L 201.51 237.80 L 197.08 238.65 L 192.13 239.37 L 186.49 239.96 L 179.90 240.42 L 171.79 240.74 L 160.70 240.94 L 127.50 241.00 L 94.30 240.94 L 83.21 240.74 L 75.10 240.42 L 68.51 239.96 L 62.87 239.37 L 57.92 238.65 L 53.49 237.80 L 49.48 236.80 L 45.82 235.67 L 42.47 234.40 L 39.39 232.98 L 36.54 231.41 L 33.92 229.68 L 31.50 227.79 L 29.26 225.74 L 27.21 223.50 L 25.32 221.08 L 23.59 218.46 L 22.02 215.61 L 20.60 212.53 L 19.33 209.18 L 18.20 205.52 L 17.20 201.51 L 16.35 197.08 L 15.63 192.13 L 15.04 186.49 L 14.58 179.90 L 14.26 171.79 L 14.06 160.70 L 14.00 127.50 L 14.06 94.30 L 14.26 83.21 L 14.58 75.10 L 15.04 68.51 L 15.63 62.87 L 16.35 57.92 L 17.20 53.49 L 18.20 49.48 L 19.33 45.82 L 20.60 42.47 L 22.02 39.39 L 23.59 36.54 L 25.32 33.92 L 27.21 31.50 L 29.26 29.26 L 31.50 27.21 L 33.92 25.32 L 36.54 23.59 L 39.39 22.02 L 42.47 20.60 L 45.82 19.33 L 49.48 18.20 L 53.49 17.20 L 57.92 16.35 L 62.87 15.63 L 68.51 15.04 L 75.10 14.58 L 83.21 14.26 L 94.30 14.06 L 127.50 14.00 L 160.70 14.06 L 171.79 14.26 L 179.90 14.58 L 186.49 15.04 L 192.13 15.63 L 197.08 16.35 L 201.51 17.20 L 205.52 18.20 L 209.18 19.33 L 212.53 20.60 L 215.61 22.02 L 218.46 23.59 L 221.08 25.32 L 223.50 27.21 L 225.74 29.26 L 227.79 31.50 L 229.68 33.92 L 231.41 36.54 L 232.98 39.39 L 234.40 42.47 L 235.67 45.82 L 236.80 49.48 L 237.80 53.49 L 238.65 57.92 L 239.37 62.87 L 239.96 68.51 L 240.42 75.10 L 240.74 83.21 L 240.94 94.30 Z"/>
    <clipPath id="clip">
      <use href="#squircle"/>
    </clipPath>
    <filter id="softShadow" x="-30%" y="-30%" width="160%" height="160%">
      <feGaussianBlur stdDeviation="4"/>
    </filter>
    <filter id="trayShadow" x="-30%" y="-40%" width="160%" height="190%">
      <feGaussianBlur stdDeviation="3"/>
    </filter>
  </defs>

  <g clip-path="url(#clip)">
    <rect x="0" y="0" width="256" height="256" fill="url(#bg)"/>
    <ellipse cx="128" cy="54" rx="100" ry="82" fill="url(#hl)"/>

    <rect x="56" y="58" width="144" height="112" rx="22" fill="#000000" fill-opacity="0.36" filter="url(#softShadow)"/>
    <rect x="52" y="54" width="152" height="112" rx="22" fill="#0f1822" stroke="#c9ebf3" stroke-opacity="0.70" stroke-width="3"/>

    <path d="M84 92 L114 110 L84 128 Z" fill="#62ecc9"/>
    <rect x="128" y="120" width="36" height="8" rx="4" fill="#62ecc9"/>

    <rect x="68" y="174" width="120" height="34" rx="12" fill="#000000" fill-opacity="0.30" filter="url(#trayShadow)"/>
    <rect x="64" y="170" width="128" height="32" rx="12" fill="#e4f7fc" stroke="#a8d6e2" stroke-width="2"/>
    <rect x="78" y="180" width="100" height="12" rx="6" fill="#a1cfdb"/>
  </g>
  <use href="#squircle" fill="none" stroke="#d8f1f8" stroke-opacity="0.35" stroke-width="2"/>
</svg>
